<?xml version="1.0" encoding="UTF-8" standalone="no" ?>
<!DOCTYPE svg PUBLIC "-//W3C//DTD SVG 1.1//EN" "http://www.w3.org/Graphics/SVG/1.1/DTD/svg11.dtd">
<svg xmlns="http://www.w3.org/2000/svg" xmlns:xlink="http://www.w3.org/1999/xlink" version="1.1" width="1080" height="1080" viewBox="0 0 1080 1080" xml:space="preserve">
<desc>Created with Fabric.js 5.2.4</desc>
<defs>
</defs>
<g transform="matrix(1 0 0 1 540 540)" id="33b890e4-1145-4be2-abba-23da1b39ad6e"  >
<rect style="stroke: none; stroke-width: 1; stroke-dasharray: none; stroke-linecap: butt; stroke-dashoffset: 0; stroke-linejoin: miter; stroke-miterlimit: 4; fill: rgb(255,255,255); fill-rule: nonzero; opacity: 1; visibility: hidden;" vector-effect="non-scaling-stroke"  x="-540" y="-540" rx="0" ry="0" width="1080" height="1080" />
</g>
<g transform="matrix(1 0 0 1 540 540)" id="9f08f897-294a-489b-80c4-73713b56d055"  >
</g>
<g transform="matrix(NaN NaN NaN NaN 0 0)"  >
<g style=""   >
</g>
</g>
<g transform="matrix(NaN NaN NaN NaN 0 0)"  >
<g style=""   >
</g>
</g>
<g transform="matrix(1.33 0 0 1.33 556.12 540)"  >
<path style="stroke: none; stroke-width: 1; stroke-dasharray: none; stroke-linecap: butt; stroke-dashoffset: 0; stroke-linejoin: miter; stroke-miterlimit: 4; fill: rgb(192,57,43); fill-rule: nonzero; opacity: 1;" vector-effect="non-scaling-stroke"  transform=" translate(-350, -280)" d="M 293.88 251.37 C 297.95029999999997 254.7645 300.5948 259.8114 300.5948 265.526 C 300.5948 275.745 292.30960000000005 284.026 282.08680000000004 284.026 C 271.86780000000005 284.026 263.57880000000006 275.74080000000004 263.57880000000006 265.526 C 263.57880000000006 264.88537 263.70380000000006 264.2838 263.76630000000006 263.66270000000003 C 263.5592700000001 263.666606 263.3717700000001 263.686138 263.16083000000003 263.686138 C 259.78973 263.686138 256.11783 263.397078 252.11783000000003 262.72910800000005 C 247.54363000000004 261.967388 244.44983000000002 257.639308 245.21163 253.06500800000006 C 245.97335 248.49080800000007 250.31323 245.38920800000005 254.87963000000002 246.15880800000005 C 274.75063 249.46350800000005 281.12563 240.52600800000005 281.38763 240.14710800000006 C 283.96183 236.40100800000005 289.12203 235.26820800000007 292.93463 237.72910800000005 C 296.75103 240.18610800000005 297.99713 245.12750800000006 295.65343 249.01810800000004 C 295.563586 249.17826800000003 294.98546 250.08840800000004 293.88003000000003 251.36970800000003 z M 436.40999999999997 265.526 C 436.40999999999997 264.88537 436.28499999999997 264.2838 436.22249999999997 263.66270000000003 C 436.42952999999994 263.666606 436.61702999999994 263.686138 436.82797 263.686138 C 440.19517 263.686138 443.87097 263.397078 447.87097 262.72910800000005 C 452.44907 261.967388 455.53897 257.639308 454.77717 253.06500800000006 C 454.01545 248.49080800000007 449.63657 245.38530800000007 445.11307 246.15880800000005 C 425.59307 249.41270800000004 419.07806999999997 240.82290800000004 418.61707 240.17440800000006 C 416.17957 236.32280800000007 411.09367000000003 235.13530800000007 407.19107 237.48690800000006 C 403.21447 239.88530800000007 401.94107 245.04940800000006 404.33557 249.02190800000005 C 404.433226 249.18206800000004 405.01135 250.09610800000004 406.11677000000003 251.37740800000006 C 402.04647000000006 254.77190800000005 399.40197 259.81880800000005 399.40197 265.53340800000007 C 399.40197 275.75240800000006 407.68717 284.03340800000007 417.90197 284.03340800000007 C 428.12497 284.02559600000006 436.40997 275.74430800000005 436.40997 265.5254080000001 z M 596.24 356.40500000000003 C 595.44312 360.40110000000004 591.9353 363.17060000000004 588.0095 363.17060000000004 C 587.46262 363.17060000000004 586.9157 363.11981900000006 586.365 363.01044 L 535.877 352.98744 C 510.275 410.06144 436.65 451.42544 349.99699999999996 451.42544 C 263.34099999999995 451.42544 189.70699999999997 410.06644 164.11699999999996 352.98744 L 113.63299999999995 363.01044 C 113.08221999999995 363.11982 112.53139999999995 363.17060000000004 111.99239999999995 363.17060000000004 C 108.06659999999995 363.17060000000004 104.55489999999995 360.40500000000003 103.76189999999994 356.40500000000003 C 102.85564999999994 351.85420000000005 105.81659999999994 347.43620000000004 110.36349999999995 346.53000000000003 L 158.30849999999995 337.01050000000004 C 155.77329999999995 327.8582 154.42959999999997 318.3935 154.42959999999997 308.7015 C 154.42959999999997 303.5218 154.94912999999997 298.3695 155.71079999999998 293.2445 L 110.35879999999997 284.23670000000004 C 105.80799999999998 283.33436000000006 102.85099999999997 278.9125 103.75719999999997 274.36170000000004 C 104.66344999999997 269.81480000000005 109.07359999999997 266.86560000000003 113.63219999999997 267.7601 L 159.37019999999995 276.8421 C 160.53429999999994 273.11940000000004 161.87409999999994 269.4241 163.44829999999996 265.7681 C 165.02249999999995 252.9751 168.60449999999997 240.2521 174.10029999999995 227.9321 C 175.77999999999994 224.1743 176.58079999999995 219.81099999999998 176.48309999999995 214.95909999999998 L 174.79169999999996 130.88109999999998 C 174.65107999999995 123.80689999999997 177.80339999999995 117.30309999999997 183.44399999999996 113.02909999999997 C 189.08069999999995 108.76349999999996 196.20599999999996 107.48219999999998 202.96399999999997 109.55249999999997 L 286.984 135.08749999999998 C 327.726 123.00149999999998 372.27299999999997 123.00549999999998 413.00399999999996 135.08359299999998 L 497.02 109.55259299999997 C 503.7973 107.49399299999997 510.895 108.75962299999998 516.543 113.02919299999998 C 522.1797 117.29869299999997 525.336 123.80219299999997 525.1992 130.87719299999998 L 523.5078 214.97119299999997 C 523.410143 219.81889299999997 524.2070199999999 224.18209299999998 525.8867 227.93619299999997 C 531.3789 240.23719299999996 534.9609 252.95619299999998 536.5507 265.768193 C 538.121 269.424393 539.4609 273.119793 540.621 276.842193 L 586.355 267.760193 C 590.8628 266.861753 595.3198 269.807093 596.23 274.36179300000003 C 597.13234 278.912593 594.1753 283.334493 589.6245 284.23679300000003 L 544.2725 293.244593 C 545.03422 298.373493 545.5537 303.521593 545.5537 308.701593 C 545.5537 318.392993 544.2099000000001 327.853593 541.6748 337.006593 L 589.6238 346.526093 C 594.1785 347.436253 597.1393999999999 351.854193 596.2370999999999 356.404993 z M 528.76 308.702 C 528.76 304.6239 528.37328 300.5653 527.81078 296.514 L 491.33778 303.75620000000004 C 490.78700000000003 303.86558 490.24008000000003 303.91636000000005 489.69328 303.91636000000005 C 485.76748000000003 303.91636000000005 482.25968 301.15076000000005 481.46278 297.15076000000005 C 480.56044 292.59996000000007 483.51748000000003 288.18196000000006 488.06828 287.27576000000005 L 524.04528 280.13516000000004 C 523.0687200000001 277.19766000000004 521.95938 274.27966000000004 520.6819800000001 271.38906000000003 C 520.3382300000001 270.60781000000003 520.1116700000001 269.78356 520.02182 268.93596 C 518.7132200000001 257.40896000000004 515.5257200000001 245.91996000000003 510.55702 234.78796000000003 C 507.86562000000004 228.75276000000002 506.57652 221.97596000000001 506.72502000000003 214.63596 L 508.41642 130.54596 C 508.45938900000004 128.31546 507.18592 127.01076 506.42032 126.42876000000001 C 505.6547 125.85064000000001 504.05312 124.98346000000001 501.92422 125.62798000000001 L 415.46722 151.90098 C 413.85782 152.39707 412.14692 152.38926 410.54142 151.889261 C 371.50642000000005 139.803261 328.51442000000003 139.807261 289.48142 151.893167 C 287.87982 152.385357 286.16112000000004 152.397077 284.55562000000003 151.904886 L 198.09862000000004 125.63188600000001 C 197.56346000000005 125.471726 197.05952000000005 125.40141600000001 196.59862000000004 125.40141600000001 C 195.21582000000004 125.40141600000001 194.17282000000003 125.99907600000002 193.60252000000003 126.43261600000001 C 192.8369 127.01073600000001 191.56342000000004 128.315416 191.60642 130.54981600000002 L 193.29782 214.63181600000001 C 193.44235 221.97951600000002 192.15332 228.75681600000001 189.46192 234.783816 C 184.48922 245.939816 181.30962 257.428816 180.01272 268.935816 C 179.91897 269.787376 179.6885 270.619416 179.34475 271.400616 C 178.06355 274.291216 176.95415 277.209216 175.97755 280.14281600000004 L 211.95055000000002 287.28341600000005 C 216.50135000000003 288.18966600000005 219.45835000000002 292.61151600000005 218.55215 297.15841600000005 C 217.75918000000001 301.15451600000006 214.24745000000001 303.92401600000005 210.32165 303.92401600000005 C 209.77868 303.92401600000005 209.23185 303.8732350000001 208.67715 303.76385600000003 L 172.20015 296.521656 C 171.63765 300.568556 171.24703 304.631056 171.24703 308.709656 C 171.24703 317.27995599999997 172.47753 325.65065599999997 174.80563 333.744656 L 208.67263 327.018056 C 213.23123 326.131336 217.64533 329.072756 218.54763 333.623556 C 219.45388 338.174356 216.49293 342.592356 211.94603 343.498556 L 180.99703 349.643056 C 205.17703 399.038056 271.78202999999996 434.627056 350.01703 434.627056 C 428.24402999999995 434.627056 494.84703 399.033056 519.02703 349.639056 L 488.08603 343.494556 C 483.53523 342.588306 480.57823 338.166456 481.48053 333.619556 C 482.38678 329.06485599999996 486.85553 326.131256 491.35553 327.014056 L 525.21853 333.73675599999996 C 527.53883 325.639056 528.76933 317.26775599999996 528.76933 308.70175599999993 z M 386.76 353.866 L 386.63891 353.866 C 376.60391 354.10038 369.24791 351.5535 364.61191 346.5652 C 362.11971 343.8894 360.64311000000004 340.7136 359.73691 337.698 L 379.27191000000005 311.479 C 381.4516100000001 308.5337 381.79141000000004 304.61179999999996 380.16253000000006 301.334 C 378.5141300000001 298.0488 375.16253000000006 295.9824 371.4867300000001 295.9824 L 328.51373000000007 295.97849299999996 C 324.8379300000001 295.97849299999996 321.48643000000004 298.04489299999995 319.8379300000001 301.330093 C 318.2090300000001 304.607393 318.54883000000007 308.529293 320.7285500000001 311.47509299999996 L 340.2595500000001 337.69009299999993 C 339.3493900000001 340.70569299999994 337.8806500000001 343.8814929999999 335.3845500000001 346.56119299999995 C 330.7439500000001 351.5494929999999 323.2755500000001 354.05339299999997 313.3575500000001 353.8619929999999 C 308.72475000000014 353.71355299999993 304.9044500000001 357.50259299999993 304.8380500000001 362.14319299999994 C 304.77164400000015 366.77989299999996 308.47865000000013 370.59629299999995 313.11925000000014 370.66269299999993 C 313.47472000000016 370.6665989999999 313.8262800000001 370.6665989999999 314.18175000000014 370.6665989999999 C 328.69375000000014 370.6665989999999 340.01775000000015 366.3579989999999 347.83775000000014 357.8425989999999 C 348.6150900000001 356.9988489999999 349.33385000000015 356.1316989999999 350.00185000000016 355.25279899999987 C 350.6698200000002 356.1317089999999 351.3885500000002 356.9988989999999 352.1659500000002 357.8425989999999 C 359.9901500000002 366.3581989999999 371.31095000000016 370.6665989999999 385.8219500000002 370.6665989999999 C 386.1735100000002 370.6665989999999 386.52898000000016 370.6665989999999 386.8844500000002 370.66269299999993 C 391.5211500000002 370.59628699999996 395.2282500000002 366.77989299999996 395.1656500000002 362.14319299999994 C 395.09143100000017 357.54549299999996 391.3453500000002 353.8658929999999 386.7594500000002 353.8658929999999 z M 453.264 285.171 C 458.00620000000004 291.6398 481.64300000000003 324.757 481.64300000000003 341.437 C 481.64300000000003 360.82 465.87 376.589 446.49100000000004 376.589 C 427.10800000000006 376.589 411.33900000000006 360.816 411.33900000000006 341.437 C 411.33900000000006 324.757 434.97600000000006 291.64 439.7180000000001 285.171 C 442.8742000000001 280.8507 450.1050000000001 280.8507 453.2650000000001 285.171 z M 464.842 341.437 C 464.842 335.394 456.2131 319.44100000000003 446.49 304.824 C 436.76730000000003 319.45300000000003 428.13800000000003 335.406 428.13800000000003 341.437 C 428.13800000000003 351.558 436.36850000000004 359.789 446.49 359.789 C 456.611 359.789 464.842 351.5585 464.842 341.437 z" stroke-linecap="round" />
</g>
</svg>